<?xml version="1.0" standalone="yes"?>
<svg width="550" height="999">
<path style="fill:#25231f; stroke:none;" d="M0 0L0 999L550 999L550 887L544 882L546 882L545 879L548 886L550 886L550 874L545 875L547 866C546.423 868.711 546.233 869.395 549 870L547 873C552.766 871.764 550 851.405 550 846L550 761L545 767L544 767L545 759L550 760C550 739 550.043 718 550 697C549.983 688.831 543.085 683.819 547 676L549 682L546 682L547 686C552.427 684.837 550 670.764 550 666L550 602L550 327L549 327L548 332L545 329L546 332L545 332L544 324L547 323L550 326L550 68C545.681 69.3139 545.36 71.7779 545 76L544 76L545 66L550 67L550 2L549 2L548 4C546.665 2.02942 545.929 3.06317 545 5L544 5L546 1C530.184 -3.67517 508.51 0 492 0L377 0L0 0z"/>
<path style="fill:#000000; stroke:none;" d="M545 0L544 5L545 5L549 4L550 0L545 0M544 12L544 16L548 18L549 13L546 15L544 12M545 23L544 39L548 38L546 34L548 34L548 33L546 33C548.495 29.4371 548.692 25.6628 545 23M544 40L544 56L547 55L546 51L549 53L548 40L544 40M544 59L544 65L548 65L544 59M545 66L544 76L545 76L550 68L550 67L545 66M544 82L546 85L544 96L548 96L549 82L544 82M547 103L544 104C544.003 110.113 541.063 128.634 549 129L547 103M544 133L544 153C549.047 151.325 549.298 144.786 545 142L544 133M544 180L546 187L544 186L544 190C548.107 187.337 547.187 183.122 544 180M547 190L544 192L547 212L548 212L547 190M545 216C543.895 220.236 544.242 223.444 548 226L549 225L548 217L545 216M545 250C550.192 246.634 548.58 234.344 547 229C540.26 231.247 545.598 247.607 545 250M545 252L544 258L547 257L545 252M545 277L548 277L549 273L548 262C542.179 263.932 543.561 272.132 545 277M544 282L544 298L545 298L546 296L548 284L544 282M546 299L545 307L549 306L548 299L546 299M544 316L545 323L549 318L544 316M546 323L544 324L545 332L546 332L545 329L548 332L550 326L546 323M544 335L544 368L545 364L548 363L546 361C550.508 357.06 548.613 340.456 547 335L544 335M545 371L546 376C540.858 380.494 543.477 401.601 545 408L547 408C549.26 402.843 550.655 379.185 547 375L547 374L549 373L545 371M545 416L547 420L547 416L545 416M544 430L546 461L547 461L548 430L544 430M544 470L549 469L544 470M544 476L544 491L545 491L545 489L546 489L544 505L548 506L545 500L549 500L546 489L548 478L547 480L546 480L544 476M544 516L548 515C545.866 513.144 544.639 513.078 544 516M547 517L544 526L546 525L546 526L544 546L547 546C548.483 540.984 550.203 527.673 546 524L546 523L549 517L547 517M548 548L544 552L548 548M546 558C543.819 562.192 542.766 566.946 547 570C548.228 565.845 548.703 561.568 546 558M544 573L547 579L544 578L548 580C548.123 576.239 547.353 574.726 544 573M544 588L546 608L546 609L546 622L549 621L545 601L545 600L549 588L544 588M544 625L547 642C545.122 642.992 543.97 644.71 546 646L544 666C549.881 662.393 551.109 634.537 545 631L544 625M546 676C544.19 681.875 544.603 685.521 550 689L547 686L546 682L549 682L546 676M545 695L544 700L547 700L545 695M545 710L544 729L547 729L549 710L546 712L545 710M547 737L545 738L544 743L548 744L547 737M544 755L549 753L549 750L544 755M545 759L544 767L545 767L550 761L545 759M544 768L546 775L544 768M545 785L547 791L548 786L545 785M544 791C544 795.99 542.618 801.836 548 804L548 792L544 791M547 813L544 826L549 825L547 813M544 831L544 839L545 839L547 831L544 831M546 840L547 843C544.186 844.54 545.913 846.457 548 848L546 840M546 853L544 864L549 863L548 853L546 853M545 866L545 875L550 874L550 873L547 873L549 870L547 866L545 866M545 879L546 882L544 882L550 887L550 886L545 879M544 890L547 896C542.228 894.409 543.733 918.547 546 919C541.132 923.868 543.379 935.534 548 939L548 903L549 892L549 891C547.04 890.347 546.446 890 549 890L544 890M544 943L546 959L546 960C540.848 964.502 544.403 981.269 544 988L549 987L549 984C545.213 977.292 547.119 962.215 547.176 954.246C547.209 949.58 549.667 944.881 544 943M545 994L545 998L549 996L545 994z"/>
</svg>
